# xmcd CD database file
#
# Track frame offsets:
#	150
#	22762
#	48315
#	68332
#	91302
#	110437
#	127465
#	145677
#	164565
#	182997
#	205887
#	233545
#
# Disc length: 3399 seconds
#
# Revision: 0
# Processed by: cddbd v1.5.2PL0 Copyright (c) Steve Scherf et al.
# Submitted via: CDex 1.51
#
DISCID=9f0d450c
DTITLE=李壽全 - NATURE 大地的窗口
DYEAR=1996
DGENRE=New Age
TTITLE0=Nature 大地
TTITLE1=河谷歲月 Canyon River
TTITLE2=黑色的湖 Silver Lake
TTITLE3=哭泣的森林 Weeping From the Forest
TTITLE4=往崗貝的路上 On the Road to Gombe
TTITLE5=大地之歌 The Earth Song
TTITLE6=是你 Nature
TTITLE7=一窩黑猩猩 Chymphny No.1
TTITLE8=風想 The Wind
TTITLE9=樹梢 The Tree
TTITLE10=高原上的月影 Moonshadow On the Highland
TTITLE11=大地的窗口 Through a Window
EXTD=YEAR: 1996
EXTT0=
EXTT1=
EXTT2=
EXTT3=
EXTT4=
EXTT5=
EXTT6=
EXTT7=
EXTT8=
EXTT9=
EXTT10=
EXTT11=
PLAYORDER=
